<svg width="36" height="26" viewBox="0 0 36 26" fill="none" xmlns="http://www.w3.org/2000/svg">
    <path fill-rule="evenodd" clip-rule="evenodd" d="M36 18.9104L35.9027 5.76209L36 18.9104ZM35.9027 5.75738C35.645 4.93355 34.8765 4.31215 33.9476 4.22741H25.6212L25.0473 1.38874C24.8868 0.583741 24.167 0 23.3402 0H17.9757H12.6598C11.8233 0 11.1181 0.583741 10.9527 1.38874L10.3788 4.22741H2.04269C0.894893 4.33098 0 5.25837 0 6.39761V23.8204C0 25.0255 1.00676 26 2.2421 26H33.7433C34.9884 26 35.9951 25.0255 35.9951 23.8204V18.9104L35.9027 5.75738ZM17.9951 7.1979C19.0992 7.1979 20.1594 7.40974 21.1273 7.80047C22.1243 8.21003 23.024 8.79377 23.7828 9.51874V9.52816C24.5317 10.2531 25.1446 11.124 25.5531 12.0985C25.9568 13.0353 26.1756 14.0569 26.1756 15.1208C26.1756 16.1847 25.9568 17.2156 25.5531 18.1525C25.1397 19.1175 24.5269 19.9884 23.7828 20.7134V20.7228C23.024 21.4478 22.1243 22.0315 21.1273 22.4364C20.1594 22.8271 19.0943 23.0389 17.9951 23.0389C16.896 23.0389 15.8406 22.8271 14.8727 22.4364C13.8757 22.0268 12.976 21.4431 12.2172 20.7228V20.7134C11.4585 19.9884 10.8554 19.1175 10.4469 18.1525C10.0432 17.2156 9.82437 16.1847 9.82437 15.1208C9.82437 14.0521 10.0432 13.0353 10.4469 12.0985C10.8603 11.124 11.4634 10.2531 12.2172 9.52816V9.51874C12.976 8.79377 13.8757 8.21003 14.8727 7.80047C15.8406 7.40974 16.8911 7.1979 17.9951 7.1979ZM5.01432 6.00217C5.85571 6.00217 6.54634 6.67065 6.54634 7.48506C6.54634 8.30889 5.85571 8.97737 5.01432 8.97737C4.1632 8.97737 3.47257 8.30889 3.47257 7.48506C3.47257 6.66594 4.1632 6.00217 5.01432 6.00217ZM21.8957 11.3406C21.3899 10.8416 20.7868 10.4414 20.1156 10.1825C19.4737 9.92359 18.7539 9.77295 18 9.77295C17.251 9.77295 16.5361 9.92359 15.8941 10.1825C15.2229 10.4414 14.6198 10.8416 14.1043 11.3406C13.5985 11.8302 13.1851 12.4233 12.9079 13.0636C12.6404 13.6944 12.4945 14.3817 12.4945 15.1114C12.4945 15.841 12.6355 16.5283 12.9079 17.1592C13.1851 17.7994 13.5985 18.3925 14.1043 18.8821C14.6198 19.3811 15.2278 19.7813 15.8941 20.0496C16.5361 20.2991 17.2559 20.4498 18 20.4498C18.7587 20.4498 19.4785 20.3038 20.1156 20.0496C20.7868 19.7813 21.3899 19.3811 21.8957 18.8821C22.4112 18.3925 22.8246 17.7947 23.1019 17.1592C23.3694 16.5283 23.5153 15.841 23.5153 15.1114C23.5153 14.377 23.3694 13.6897 23.1019 13.0636C22.8246 12.428 22.4112 11.8349 21.8957 11.3406Z" fill="white"/>
</svg>
