<svg width="311" height="208" viewBox="0 0 311 208" fill="none" xmlns="http://www.w3.org/2000/svg">
<path d="M300.213 31.8388C296.036 25.3871 286.484 25.3871 282.307 31.8388C275.521 42.3189 271.919 54.542 271.938 67.0276C271.938 67.6727 271.938 68.3179 271.965 68.9598C272.204 77.081 276.401 82.5218 281.942 85.2887C285.467 87.048 287.765 90.5665 287.698 94.5041L286.385 175.048C286.373 175.694 286.491 176.336 286.73 176.937C286.969 177.537 287.326 178.084 287.779 178.545C288.232 179.006 288.772 179.372 289.368 179.622C289.964 179.871 290.604 180 291.25 180C291.897 179.999 292.538 179.87 293.134 179.619C293.731 179.368 294.272 179.001 294.725 178.539C295.179 178.078 295.536 177.53 295.776 176.929C296.015 176.328 296.133 175.685 296.122 175.038L294.745 94.5573C294.676 90.6064 296.987 87.0779 300.529 85.322C306.096 82.5617 310.313 77.1143 310.549 68.9731C310.569 68.3312 310.579 67.686 310.579 67.0409C310.604 54.5508 307.003 42.3221 300.213 31.8388Z" fill="#C4C6C8"/>
<path d="M299.355 34.3097C298.409 32.8419 297.075 31.6653 295.5 30.9109C300.922 39.9766 303.777 50.3453 303.761 60.9083C303.761 61.4903 303.761 62.069 303.735 62.6476C303.272 78.4146 286.285 83.0006 276.205 76.4092C283.944 89.5389 308.131 86.6755 308.69 67.8157C308.71 67.237 308.716 66.6551 308.716 66.0731C308.734 54.8026 305.482 43.7689 299.355 34.3097Z" fill="#B5B7BA"/>
<path d="M25.0588 31.4862L22.1023 66.4488C22.0624 67.3035 21.1212 67.3035 21.0813 66.4488L19.0859 31.0207C18.9828 29.7868 17.6559 29.7436 17.5096 30.9708L14.5996 66.4488C14.5564 67.3035 13.6185 67.3035 13.5786 66.4488L10.6886 30.9708C10.5423 29.7436 9.21538 29.7868 9.11229 31.0207L7.08363 66.4488C7.04372 67.3035 6.10589 67.3035 6.06265 66.4488L3.12943 31.4862C2.89663 30.2691 1.55973 30.4885 1.55973 31.7523L0 74.3207C0 79.6417 3.21591 83.9651 7.18009 83.9651C7.66642 83.965 8.14788 84.0618 8.59633 84.25C9.04478 84.4382 9.45121 84.714 9.79183 85.0611C10.1325 85.4082 10.4004 85.8198 10.5801 86.2717C10.7598 86.7236 10.8476 87.2069 10.8383 87.6931L9.22202 175.048C9.22202 176.339 9.73498 177.578 10.648 178.491C11.5611 179.404 12.7995 179.917 14.0908 179.917C15.3821 179.917 16.6204 179.404 17.5335 178.491C18.4466 177.578 18.9595 176.339 18.9595 175.048L17.2734 87.6865C17.2637 87.1999 17.3511 86.7164 17.5306 86.264C17.7101 85.8117 17.978 85.3998 18.3187 85.0523C18.6594 84.7048 19.0659 84.4288 19.5146 84.2404C19.9633 84.052 20.445 83.955 20.9316 83.9551H20.9848C24.9523 83.9551 28.1649 79.6317 28.1649 74.3107L26.6285 31.7423C26.6285 30.4952 25.2916 30.2691 25.0588 31.4862Z" fill="#C4C6C8"/>
<path d="M14.031 75.4015C12.019 76.7018 10.5324 78.6939 8.51045 79.9776C7.87691 80.3824 7.20114 80.7169 6.49512 80.9753C6.96494 81.1261 7.45498 81.2046 7.94842 81.2081H20.2167C23.7419 81.2081 26.5986 77.3736 26.5986 72.6478V70.1669C25.8453 70.7887 25.0202 71.3179 24.1409 71.7433C20.8951 73.283 17.044 73.4493 14.031 75.4015Z" fill="#B5B7BA"/>
<line x1="45" y1="2.80669" x2="45" y2="30.2683" stroke="#5EA451" stroke-width="4" stroke-linecap="round"/>
<line x1="72.4618" y1="2" x2="45.0001" y2="2" stroke="#5EA451" stroke-width="4" stroke-linecap="round"/>
<line x1="261.939" y1="204.854" x2="261.939" y2="177.393" stroke="#5EA451" stroke-width="4" stroke-linecap="round"/>
<line x1="234.477" y1="205.661" x2="261.939" y2="205.661" stroke="#5EA451" stroke-width="4" stroke-linecap="round"/>
<line x1="261.132" y1="2.40338" x2="233.67" y2="2.40338" stroke="#5EA451" stroke-width="4" stroke-linecap="round"/>
<line x1="261.938" y1="29.865" x2="261.938" y2="2.40339" stroke="#5EA451" stroke-width="4" stroke-linecap="round"/>
<line x1="45.8067" y1="205.258" x2="73.2684" y2="205.258" stroke="#5EA451" stroke-width="4" stroke-linecap="round"/>
<line x1="45" y1="177.796" x2="45" y2="205.258" stroke="#5EA451" stroke-width="4" stroke-linecap="round"/>
</svg>
